<?xml version="1.0" encoding="utf-8"?>
<!-- Generator: Adobe Illustrator 21.1.0, SVG Export Plug-In . SVG Version: 6.00 Build 0)  -->
<svg version="1.1" id="Layer_1" xmlns="http://www.w3.org/2000/svg" xmlns:xlink="http://www.w3.org/1999/xlink" x="0px" y="0px"
	 viewBox="0 0 960 172" style="enable-background:new 0 0 960 172;" xml:space="preserve">
<style type="text/css">
	.st0{fill:#D3C3AF;}
	.st1{fill:#443E32;}
</style>
<g>
	<path class="st0" d="M352,41.1h-25.3c-3.1,0-5.7,1.2-7.8,3.3l4.5,3.9c0.8-0.8,2.5-1.4,5.3-1.4h21.7c3.3,0,6.1,2.7,6.1,6.1v83.6
		c0,3.3-1.2,4.3-1.6,4.7l4.5,4.5c1.6-1.6,2.9-3.9,2.9-7.2V51.5C362.4,45.6,358.1,41.1,352,41.1z"/>
	<path class="st0" d="M422.3,136.7c0,3.3-1.2,4.3-1.6,4.7l4.5,4.5c1.6-1.6,2.9-3.9,2.9-7.2V41.1h-13.7l7.8,7.8V136.7z"/>
	<path class="st0" d="M329.9,135.1V54.8l-4.7-4.7c-0.4,0.4-1.2,1.6-1.2,4.1v80.9c0,3.1,2.7,5.9,5.9,5.9h20c1.4,0,2.2-0.6,3.1-1.6
		l-4.3-4.3H329.9z"/>
	<polygon class="st0" points="340.6,142.9 348.3,154.5 356.3,160.6 348.9,148.8 	"/>
	<polygon class="st0" points="461.5,102.8 455.6,97.1 455.6,141 481.4,141 489.3,148.8 489.3,135.1 461.5,135.1 	"/>
	<polygon class="st0" points="290.7,48.3 290.7,142.9 296.6,148.8 296.6,41.1 282.8,41.1 289.3,47 	"/>
	<path class="st0" d="M566.3,136.7c0,3.3-1.2,4.3-1.6,4.7l4.5,4.5c1.6-1.6,2.9-3.9,2.9-7.2v-27.2h-13.7l7.8,7.8V136.7z"/>
	<path class="st0" d="M395.7,41.1h-13.7l7.8,8v86c0,3.1,2.7,5.9,5.9,5.9h20c1.4,0,2.2-0.6,3.1-1.6l-4.3-4.3h-18.8V41.1z"/>
	<polygon class="st0" points="461.5,54.8 455.6,49.1 455.6,93 472,93 480.1,100.8 480.1,87.1 461.5,87.1 	"/>
	<polygon class="st0" points="487.9,54.8 487.9,41.1 447.8,41.1 454.2,47 479.9,47 	"/>
	<path class="st0" d="M47,135.1V88.9l-5.9-5.7V141H67c1.4,0,2.2-0.6,3.1-1.6l-4.3-4.3H47z"/>
	<path class="st0" d="M72.1,80.6c0,0-5.3,0-9.2,0c7.1,0,10.8,3.9,10.8,10v46c0,3.3-1.2,4.3-1.6,4.7l4.5,4.5c1.6-1.6,2.9-3.9,2.9-7.2
		v-48C79.5,85,75.8,81.2,72.1,80.6z"/>
	<path class="st0" d="M112.1,135.1V54.8l-4.7-4.7c-0.4,0.4-1.2,1.6-1.2,4.1v80.9c0,3.1,2.7,5.9,5.9,5.9h20c1.4,0,2.2-0.6,3.1-1.6
		l-4.3-4.3H112.1z"/>
	<polygon class="st0" points="261.3,47 269.1,54.8 269.1,41.1 224.1,41.1 230,47 	"/>
	<path class="st0" d="M539.6,29.3l-4.7-4.7c-0.4,0.4-1.2,1.6-1.2,4.1v106.4c0,3.1,2.7,5.9,5.9,5.9h20c1.4,0,2.2-0.6,3.1-1.6
		l-4.3-4.3h-18.8V29.3z"/>
	<path class="st0" d="M71.5,27.6v39.8c0,5.3-3.1,8.4-3.1,8.4l2.9,2c3.9-1,6.1-4.7,6.1-8.8V26c0-5.5-3.7-10.4-10.4-10.4H33.3l5.9,5.9
		h26.2C68.8,21.5,71.5,24.2,71.5,27.6z"/>
	<polygon class="st0" points="247.6,142.9 253.5,148.8 253.5,54.8 247.6,48.9 	"/>
	<path class="st0" d="M177.9,41.1h-13.7l7.8,8v86c0,3.1,2.7,5.9,5.9,5.9h20c1.4,0,2.2-0.6,3.1-1.6l-4.3-4.3h-18.8V41.1z"/>
	<path class="st0" d="M204.5,136.7c0,3.3-1.2,4.3-1.6,4.7l4.5,4.5c1.6-1.6,2.9-3.9,2.9-7.2V41.1h-13.7l7.8,7.8V136.7z"/>
	<path class="st0" d="M134.2,41.1h-25.3c-3.1,0-5.7,1.2-7.8,3.3l4.5,3.9c0.8-0.8,2.5-1.4,5.3-1.4h21.7c3.3,0,6.1,2.7,6.1,6.1v83.6
		c0,3.3-1.2,4.3-1.6,4.7l4.5,4.5c1.6-1.6,2.9-3.9,2.9-7.2V51.5C144.6,45.6,140.3,41.1,134.2,41.1z"/>
	<path class="st0" d="M67,74.8l-2.9-2c0,0-1,0.4-2.4,0.4H47V29.3l-5.9-5.7v55.4h16.5C60.7,79.1,64.9,77.7,67,74.8z"/>
	<path class="st0" d="M847.9,92l-2.9-2c0,0-1,0.4-2.4,0.4h-14.7V54.8l-5.9-5.7v47.2h16.5C841.6,96.3,845.7,94.9,847.9,92z"/>
	<path class="st0" d="M853,97.9c0,0-5.3,0-9.2,0c7.1,0,10.8,3.9,10.8,10v35.1l5.9,5.9v-40.9C860.4,102.2,856.7,98.5,853,97.9z"/>
	<polygon class="st0" points="762.9,116.1 770.1,54.8 764.8,48.9 755.4,122 787.4,122 781.3,116.1 	"/>
	<polygon class="st0" points="752.3,143.7 758.8,148.8 761.1,129.8 755.1,124.7 	"/>
	<polygon class="st0" points="712,41.1 698.3,41.1 706.1,48.9 706.1,141 724.9,141 732.7,148.8 732.7,135.1 712,135.1 	"/>
	<polygon class="st0" points="822,142.9 827.9,148.8 827.9,106.1 822,100.4 	"/>
	<polygon class="st0" points="757.8,41.1 763.1,47 780.1,47 792.7,142 799.5,148.8 785.6,41.1 	"/>
	<path class="st0" d="M915.9,41.1h-25.3c-3.1,0-5.7,1.2-7.8,3.3l4.5,3.9c0.8-0.8,2.5-1.4,5.3-1.4h21.7c3.3,0,6.1,2.7,6.1,6.1v6.9
		l5.9,5.9V51.5C926.2,45.6,921.9,41.1,915.9,41.1z"/>
	<polygon class="st0" points="602.7,102.8 596.8,97.1 596.8,141 622.7,141 630.5,148.8 630.5,135.1 602.7,135.1 	"/>
	<path class="st0" d="M852.4,53.6v30.9c0,5.3-3.1,8.4-3.1,8.4l2.9,2c3.9-1,6.1-4.7,6.1-8.8V51.5c0-5.5-3.7-10.4-10.4-10.4h-33.7
		l6.5,5.9h25.3C849.3,47,852.4,49.9,852.4,53.6z"/>
	<path class="st0" d="M893.7,135.1v-11.9H880l7.8,7.8v4.1c0,2.9,2.7,5.9,5.9,5.9h20c1.4,0,2.2-0.6,3.1-1.6l-4.3-4.3H893.7z"/>
	<polygon class="st0" points="602.7,54.8 596.8,49.1 596.8,93 613.3,93 621.3,100.8 621.3,87.1 602.7,87.1 	"/>
	<polygon class="st0" points="629.1,54.8 629.1,41.1 589,41.1 595.4,47 621.1,47 	"/>
	<path class="st0" d="M893.7,54.8l-3.9-3.9c-0.8,0.8-2,2.5-2,3.9v32.1c0,2.7,3.1,5.9,5.9,5.9h20.6c3.3,0,6.1,2.7,6.1,6.1v37.8
		c0,3.3-1.2,4.3-1.6,4.7l4.5,4.5c1.6-1.6,2.9-3.9,2.9-7.2V97.3c0-5.9-4.3-10.4-10.4-10.4h-22.1V54.8z"/>
	<path class="st0" d="M561.7,15.6h-25.3c-3.1,0-5.7,1.2-7.8,3.3l4.5,3.9c0.8-0.8,2.5-1.4,5.3-1.4h21.7c3.3,0,6.1,2.7,6.1,6.1V47
		l5.9,5.9V26C572.1,20.1,567.8,15.6,561.7,15.6z"/>
	<polygon class="st0" points="661.8,41.1 648.1,41.1 656,48.9 656,141 674.8,141 682.6,148.8 682.6,135.1 661.8,135.1 	"/>
	<path class="st1" d="M73.3,79.1c3.5-1,6.1-4.7,6.1-9.6V25.4c0-6.3-5.1-11.8-11.8-11.8H31.4v137.1h38.4c6.5,0,11.8-5.3,11.8-11.6
		c0-4.1,0-43.7,0-48.6S78.6,80.3,73.3,79.1z M33.3,15.6H67c6.7,0,10.4,4.9,10.4,10.4v42.9c0,4.1-2.2,7.8-6.1,8.8l-2.9-2
		c0,0,3.1-3.1,3.1-8.4V27.6c0-3.3-2.7-6.1-6.1-6.1H39.2L33.3,15.6z M41.2,79.1V23.6l5.9,5.7v43.9h14.7c1.4,0,2.4-0.4,2.4-0.4l2.9,2
		c-2.2,2.9-6.3,4.3-9.4,4.3H41.2z M63.9,88.9v44.3H49V88.9H63.9z M49,71.2v-40h12.7v40H49z M67,141H41.2V83.2l5.9,5.7v46.2h18.8
		l4.3,4.3C69.2,140.4,68.4,141,67,141z M79.5,138.6c0,3.3-1.4,5.7-2.9,7.2l-4.5-4.5c0.4-0.4,1.6-1.4,1.6-4.7v-46
		c0-6.1-3.7-10-10.8-10c3.9,0,9.2,0,9.2,0c3.7,0.6,7.4,4.3,7.4,10V138.6z"/>
	<path class="st1" d="M134.8,39.1h-26.6c-6.3,0-11.8,5.5-11.8,11.8v88.3c0,6.3,5.5,11.6,11.8,11.6h26.6c6.5,0,11.8-5.3,11.8-11.6
		V50.9C146.5,44.6,141.4,39.1,134.8,39.1z M132,141h-20c-3.1,0-5.9-2.7-5.9-5.9V54.2c0-2.5,0.8-3.7,1.2-4.1l4.7,4.7v80.3h18.8
		l4.3,4.3C134.2,140.4,133.4,141,132,141z M114,133.1V56.7h14.9v76.4H114z M144.6,138.6c0,3.3-1.4,5.7-2.9,7.2l-4.5-4.5
		c0.4-0.4,1.6-1.4,1.6-4.7V53c0-3.3-2.7-6.1-6.1-6.1h-21.7c-2.7,0-4.5,0.6-5.3,1.4l-4.5-3.9c2.2-2.2,4.7-3.3,7.8-3.3h25.3
		c6.1,0,10.4,4.5,10.4,10.4V138.6z"/>
	<path class="st1" d="M194.7,133.1h-14.9v-94h-17.6v100.1c0,6.3,5.5,11.6,11.8,11.6h26.6c6.5,0,11.8-5.3,11.8-11.6V39.1h-17.6V133.1
		z M210.4,41.1v97.5c0,3.3-1.4,5.7-2.9,7.2l-4.5-4.5c0.4-0.4,1.6-1.4,1.6-4.7V48.9l-7.8-7.8H210.4z M201,139.4c-1,1-1.8,1.6-3.1,1.6
		h-20c-3.1,0-5.9-2.7-5.9-5.9v-86l-7.8-8h13.7v94h18.8L201,139.4z"/>
	<path class="st1" d="M222.1,56.7h15.7v94h17.6v-94h15.7V39.1h-49V56.7z M253.5,148.8l-5.9-5.9v-94l5.9,5.9V148.8z M269.1,41.1v13.7
		l-7.8-7.8H230l-5.9-5.9H269.1z"/>
	<path class="st1" d="M280.9,150.8h17.6V39.1h-17.6V150.8z M296.6,41.1v107.7l-5.9-5.9V48.3l-1.4-1.4l-6.5-5.9H296.6z"/>
	<path class="st1" d="M352.6,39.1h-26.6c-6.3,0-11.8,5.5-11.8,11.8v88.3c0,6.3,5.5,11.6,11.8,11.6h9.2l7.4,11.8H360l-7.4-11.8
		c6.5,0,11.8-5.3,11.8-11.6V50.9C364.3,44.6,359.2,39.1,352.6,39.1z M356.3,160.6l-8-6.1l-7.6-11.6l8.2,5.9L356.3,160.6z M349.8,141
		h-20c-3.1,0-5.9-2.7-5.9-5.9V54.2c0-2.5,0.8-3.7,1.2-4.1l4.7,4.7v80.3h18.8l4.3,4.3C352,140.4,351.2,141,349.8,141z M331.8,133.1
		V56.7h14.9v76.4H331.8z M362.4,138.6c0,3.3-1.4,5.7-2.9,7.2l-4.5-4.5c0.4-0.4,1.6-1.4,1.6-4.7V53c0-3.3-2.7-6.1-6.1-6.1h-21.7
		c-2.7,0-4.5,0.6-5.3,1.4l-4.5-3.9c2.2-2.2,4.7-3.3,7.8-3.3H352c6.1,0,10.4,4.5,10.4,10.4V138.6z"/>
	<path class="st1" d="M412.5,133.1h-14.9v-94H380v100.1c0,6.3,5.5,11.6,11.8,11.6h26.6c6.5,0,11.8-5.3,11.8-11.6V39.1h-17.6V133.1z
		 M428.2,41.1v97.5c0,3.3-1.4,5.7-2.9,7.2l-4.5-4.5c0.4-0.4,1.6-1.4,1.6-4.7V48.9l-7.8-7.8H428.2z M418.8,139.4
		c-1,1-1.8,1.6-3.1,1.6h-20c-3.1,0-5.9-2.7-5.9-5.9v-86l-7.8-8h13.7v94h18.8L418.8,139.4z"/>
	<path class="st1" d="M463.4,102.8H482V85.1h-18.6V56.7h26.4V39.1h-44.1v111.6h45.4v-17.6h-27.8V102.8z M480.1,87.1v13.7l-8-7.8
		h-16.5V49.1l5.9,5.7v32.3H480.1z M447.8,41.1h40.2v13.7l-8-7.8h-25.7L447.8,41.1z M489.3,135.1v13.7l-7.8-7.8h-25.9V97.1l5.9,5.7
		v32.3H489.3z"/>
	<path class="st1" d="M562.3,13.7h-26.6c-6.3,0-11.8,5.5-11.8,11.8v113.8c0,6.3,5.5,11.6,11.8,11.6h26.6c6.5,0,11.8-5.3,11.8-11.6
		v-29.8h-17.6v23.7h-14.9V31.3h14.9v23.5h17.6V25.4C574.1,19.1,569,13.7,562.3,13.7z M572.1,111.4v27.2c0,3.3-1.4,5.7-2.9,7.2
		l-4.5-4.5c0.4-0.4,1.6-1.4,1.6-4.7v-17.4l-7.8-7.8H572.1z M558.4,135.1l4.3,4.3c-1,1-1.8,1.6-3.1,1.6h-20c-3.1,0-5.9-2.7-5.9-5.9
		V28.7c0-2.5,0.8-3.7,1.2-4.1l4.7,4.7v105.8H558.4z M572.1,52.8l-5.9-5.9V27.6c0-3.3-2.7-6.1-6.1-6.1h-21.7c-2.7,0-4.5,0.6-5.3,1.4
		l-4.5-3.9c2.2-2.2,4.7-3.3,7.8-3.3h25.3c6.1,0,10.4,4.5,10.4,10.4V52.8z"/>
	<path class="st1" d="M604.6,102.8h18.6V85.1h-18.6V56.7h26.4V39.1H587v111.6h45.4v-17.6h-27.8V102.8z M621.3,87.1v13.7l-8-7.8
		h-16.5V49.1l5.9,5.7v32.3H621.3z M589,41.1h40.2v13.7l-8-7.8h-25.7L589,41.1z M630.5,135.1v13.7l-7.8-7.8h-25.9V97.1l5.9,5.7v32.3
		H630.5z"/>
	<path class="st1" d="M663.8,39.1h-17.6v111.6h38.4v-17.6h-20.8V39.1z M682.6,135.1v13.7l-7.8-7.8H656V48.9l-7.8-7.8h13.7v94H682.6z
		"/>
	<path class="st1" d="M713.9,39.1h-17.6v111.6h38.4v-17.6h-20.8V39.1z M732.7,135.1v13.7l-7.8-7.8h-18.8V48.9l-7.8-7.8H712v94H732.7
		z"/>
	<path class="st1" d="M756.2,39.1l-14.5,111.6h18.8l2.3-19h18.2l2.3,19h18.2L787.6,39.1H756.2z M758.8,148.8l-6.5-5.1l2.7-19
		l6.1,5.1L758.8,148.8z M755.4,122l9.4-73.1l5.3,5.9l-7.2,61.3h18.4l6.1,5.9H755.4z M771.9,56.7l7.1,57.4H765L771.9,56.7z
		 M792.7,142l-12.5-95h-17l-5.3-5.9h27.8l13.9,107.7L792.7,142z"/>
	<path class="st1" d="M854.2,96.3c3.5-1,6.1-4.7,6.1-9.6V50.9c0-6.3-5.1-11.8-11.8-11.8h-36.2v111.6h17.6v-44.7h14.9v44.7h17.6
		v-42.9C862.4,103,859.5,97.5,854.2,96.3z M814.2,41.1h33.7c6.7,0,10.4,4.9,10.4,10.4v34.7c0,4.1-2.2,7.8-6.1,8.8l-2.9-2
		c0,0,3.1-3.1,3.1-8.4V53.6c0-3.7-3.1-6.7-6.5-6.7h-25.3L814.2,41.1z M842.6,56.7v31.7h-12.7V56.7H842.6z M827.9,148.8l-5.9-5.9
		v-42.5l5.9,5.7V148.8z M822,96.3V49.1l5.9,5.7v35.6h14.7c1.4,0,2.4-0.4,2.4-0.4l2.9,2c-2.2,2.9-6.3,4.3-9.4,4.3H822z M860.4,148.8
		l-5.9-5.9v-35.1c0-6.1-3.7-10-10.8-10c3.9,0,9.2,0,9.2,0c3.7,0.6,7.4,4.3,7.4,10V148.8z"/>
	<path class="st1" d="M916.4,39.1h-26.6c-7.1,0-11.8,4.9-11.8,11.8V91c0,5.9,4.9,11.6,11.8,11.6h20.8v30.6h-14.9v-11.9h-17.6v18
		c0,6.3,5.5,11.6,11.8,11.6h26.6c6.5,0,11.8-5.3,11.8-11.6V96.7c0-6.3-5.1-11.8-11.8-11.8h-20.8V56.7h14.9v11h17.6v-17
		C928.2,44,923.1,39.1,916.4,39.1z M913.7,141h-20c-3.1,0-5.9-2.9-5.9-5.9V131l-7.8-7.8h13.7v11.9h18.8l4.3,4.3
		C915.9,140.4,915.1,141,913.7,141z M915.9,86.9c6.1,0,10.4,4.5,10.4,10.4v41.3c0,3.3-1.4,5.7-2.9,7.2l-4.5-4.5
		c0.4-0.4,1.6-1.4,1.6-4.7V98.9c0-3.3-2.7-6.1-6.1-6.1h-20.6c-2.7,0-5.9-3.1-5.9-5.9V54.8c0-1.4,1.2-3.1,2-3.9l3.9,3.9v32.1H915.9z
		 M926.2,65.8l-5.9-5.9V53c0-3.3-2.7-6.1-6.1-6.1h-21.7c-2.7,0-4.5,0.6-5.3,1.4l-4.5-3.9c2.2-2.2,4.7-3.3,7.8-3.3h25.3
		c6.1,0,10.4,4.5,10.4,10.4V65.8z"/>
</g>
</svg>
